<mxfile host="app.diagrams.net" modified="2023-05-03T18:01:38.894Z" agent="Mozilla/5.0 (Windows NT 10.0; Win64; x64) AppleWebKit/537.36 (KHTML, like Gecko) Chrome/112.0.0.0 Safari/537.36" etag="8qjvbqAk2AhxJJHgX6e0" version="21.2.6" type="device" pages="2">
  <diagram id="JeBeYeOjpAU1qo7qXgWm" name="‫עמוד-1‬">
    <mxGraphModel dx="17700" dy="6860" grid="1" gridSize="10" guides="1" tooltips="1" connect="1" arrows="1" fold="1" page="0" pageScale="1" pageWidth="827" pageHeight="1169" background="none" math="0" shadow="0">
      <root>
        <mxCell id="0" />
        <mxCell id="1" parent="0" />
        <mxCell id="hLXZQ6UuVJ6iJqDCVl8J-54" value="Deliveries" style="shape=module;align=left;spacingLeft=20;align=center;verticalAlign=top;whiteSpace=wrap;html=1;" vertex="1" parent="1">
          <mxGeometry x="-740" y="-370" width="3630" height="3370" as="geometry" />
        </mxCell>
        <mxCell id="hLXZQ6UuVJ6iJqDCVl8J-53" value="HR_Deliveries_interfaces" style="shape=module;align=left;spacingLeft=20;align=center;verticalAlign=top;whiteSpace=wrap;html=1;" vertex="1" parent="1">
          <mxGeometry x="3130" y="1090" width="550" height="324.5" as="geometry" />
        </mxCell>
        <mxCell id="node42" value="&lt;p style=&quot;margin:0px;margin-top:4px;text-align:center;&quot;&gt;&lt;i&gt;&amp;lt;&amp;lt;enumeration&amp;gt;&amp;gt;&lt;/i&gt;&lt;br/&gt;&lt;b&gt;Availability&lt;/b&gt;&lt;/p&gt;&lt;hr size=&quot;1&quot;/&gt;&lt;p style=&quot;margin:0 0 0 4px;line-height:1.6;&quot;&gt;+ Busy: &lt;br/&gt;+ Available: &lt;/p&gt;" style="verticalAlign=top;align=left;overflow=fill;fontSize=14;fontFamily=Helvetica;html=1;rounded=0;shadow=0;comic=0;labelBackgroundColor=none;strokeWidth=1;" parent="1" vertex="1">
          <mxGeometry x="947" y="462" width="120" height="95" as="geometry" />
        </mxCell>
        <mxCell id="node4" value="&lt;p style=&quot;margin:0px;margin-top:4px;text-align:center;&quot;&gt;&lt;b&gt;DeliveryException&lt;/b&gt;&lt;/p&gt;&lt;hr size=&quot;1&quot;/&gt;" style="verticalAlign=top;align=left;overflow=fill;fontSize=14;fontFamily=Helvetica;html=1;rounded=0;shadow=0;comic=0;labelBackgroundColor=none;strokeWidth=1;" parent="1" vertex="1">
          <mxGeometry x="673" y="882" width="162" height="31" as="geometry" />
        </mxCell>
        <mxCell id="node25" value="&lt;p style=&quot;margin:0px;margin-top:4px;text-align:center;&quot;&gt;&lt;b&gt;DeliveryForm&lt;/b&gt;&lt;/p&gt;&lt;hr size=&quot;1&quot;/&gt;&lt;p style=&quot;margin:0 0 0 4px;line-height:1.6;&quot;&gt;- formId: int&lt;br/&gt;- deliveryFormsController: DeliveryFormsController&lt;br/&gt;- stopToCancel: DeliveryStop&lt;br/&gt;- maxWeightAllowed: int&lt;br/&gt;- dispatchWeightTons: int&lt;br/&gt;- originSite: Site&lt;br/&gt;- truck: Truck&lt;br/&gt;- deliveryManager: DeliveryManagerImpl&lt;br/&gt;- driver: Driver&lt;br/&gt;- weightMeasurer: WeightMeasurer&lt;br/&gt;- hrManager: HRIntegrator&lt;br/&gt;- dispatchTime: Timestamp&lt;br/&gt;- destinationSitesToVisit: List&amp;lt;DeliveryStop&amp;gt;&lt;br/&gt;- destinationSitesVisited: List&amp;lt;DeliveryStop&amp;gt;&lt;/p&gt;" style="verticalAlign=top;align=left;overflow=fill;fontSize=14;fontFamily=Helvetica;html=1;rounded=0;shadow=0;comic=0;labelBackgroundColor=none;strokeWidth=1;" parent="1" vertex="1">
          <mxGeometry x="1524" y="890" width="456" height="570" as="geometry" />
        </mxCell>
        <mxCell id="node0" value="&lt;p style=&quot;margin:0px;margin-top:4px;text-align:center;&quot;&gt;&lt;b&gt;DeliveryFormDAO&lt;/b&gt;&lt;/p&gt;&lt;hr size=&quot;1&quot;/&gt;&lt;p style=&quot;margin:0 0 0 4px;line-height:1.6;&quot;&gt;- conn: Connect&lt;/p&gt;" style="verticalAlign=top;align=left;overflow=fill;fontSize=14;fontFamily=Helvetica;html=1;rounded=0;shadow=0;comic=0;labelBackgroundColor=none;strokeWidth=1;" parent="1" vertex="1">
          <mxGeometry x="660" y="2470" width="168" height="58" as="geometry" />
        </mxCell>
        <mxCell id="node44" value="&lt;p style=&quot;margin:0px;margin-top:4px;text-align:center;&quot;&gt;&lt;b&gt;DeliveryFormsController&lt;/b&gt;&lt;/p&gt;&lt;hr size=&quot;1&quot;/&gt;&lt;p style=&quot;margin:0 0 0 4px;line-height:1.6;&quot;&gt;- instance: DeliveryFormsController&lt;br/&gt;- pendingDeliveryForms: Set&amp;lt;DeliveryForm&amp;gt;&lt;br/&gt;- driverController: DriverController&lt;br/&gt;- deliveryFormCount: int&lt;br/&gt;- deliveryFormDAO: DeliveryFormDAO&lt;br/&gt;- completedDeliveryForms: Set&amp;lt;DeliveryForm&amp;gt;&lt;br/&gt;- truckController: TruckController&lt;/p&gt;" style="verticalAlign=top;align=left;overflow=fill;fontSize=14;fontFamily=Helvetica;html=1;rounded=0;shadow=0;comic=0;labelBackgroundColor=none;strokeWidth=1;" parent="1" vertex="1">
          <mxGeometry x="1360" y="1660" width="700" height="350" as="geometry" />
        </mxCell>
        <mxCell id="node7" value="&lt;p style=&quot;margin:0px;margin-top:4px;text-align:center;&quot;&gt;&lt;i&gt;&amp;lt;&amp;lt;interface&amp;gt;&amp;gt;&lt;/i&gt;&lt;br/&gt;&lt;b&gt;DeliveryManager&lt;/b&gt;&lt;/p&gt;&lt;hr size=&quot;1&quot;/&gt;" style="verticalAlign=top;align=left;overflow=fill;fontSize=14;fontFamily=Helvetica;html=1;rounded=0;shadow=0;comic=0;labelBackgroundColor=none;strokeWidth=1;" parent="1" vertex="1">
          <mxGeometry x="379" y="1560" width="157" height="36" as="geometry" />
        </mxCell>
        <mxCell id="node15" value="&lt;p style=&quot;margin:0px;margin-top:4px;text-align:center;&quot;&gt;&lt;i&gt;&amp;lt;&amp;lt;interface&amp;gt;&amp;gt;&lt;/i&gt;&lt;br/&gt;&lt;b&gt;DeliveryIntegrator&lt;/b&gt;&lt;/p&gt;&lt;hr size=&quot;1&quot;/&gt;" style="verticalAlign=top;align=left;overflow=fill;fontSize=14;fontFamily=Helvetica;html=1;rounded=0;shadow=0;comic=0;labelBackgroundColor=none;strokeWidth=1;" parent="1" vertex="1">
          <mxGeometry x="3310" y="1311.5" width="164" height="36" as="geometry" />
        </mxCell>
        <mxCell id="node30" value="&lt;p style=&quot;margin:0px;margin-top:4px;text-align:center;&quot;&gt;&lt;b&gt;DeliveryManagerImpl&lt;/b&gt;&lt;/p&gt;&lt;hr size=&quot;1&quot;/&gt;&lt;p style=&quot;margin:0 0 0 4px;line-height:1.6;&quot;&gt;- pendingDeliveryStops: Set&amp;lt;DeliveryStop&amp;gt;&lt;br/&gt;- deliveryCount: int&lt;br/&gt;- truckController: TruckController&lt;br/&gt;- driverController: DriverController&lt;br/&gt;- tripReplanner: TripReplanner&lt;br/&gt;- deliveryFormsController: DeliveryFormsController&lt;br/&gt;- instance: DeliveryManagerImpl&lt;/p&gt;" style="verticalAlign=top;align=left;overflow=fill;fontSize=14;fontFamily=Helvetica;html=1;rounded=0;shadow=0;comic=0;labelBackgroundColor=none;strokeWidth=1;" parent="1" vertex="1">
          <mxGeometry x="630" y="1480" width="340" height="310" as="geometry" />
        </mxCell>
        <mxCell id="node46" value="&lt;p style=&quot;margin:0px;margin-top:4px;text-align:center;&quot;&gt;&lt;i&gt;&amp;lt;&amp;lt;enumeration&amp;gt;&amp;gt;&lt;/i&gt;&lt;br/&gt;&lt;b&gt;DeliveryStatus&lt;/b&gt;&lt;/p&gt;&lt;hr size=&quot;1&quot;/&gt;&lt;p style=&quot;margin:0 0 0 4px;line-height:1.6;&quot;&gt;+ DELIVERED: &lt;br/&gt;+ IN_TRANSIT: &lt;br/&gt;+ CANCELLED: &lt;br/&gt;+ NOT_STARTED: &lt;/p&gt;" style="verticalAlign=top;align=left;overflow=fill;fontSize=14;fontFamily=Helvetica;html=1;rounded=0;shadow=0;comic=0;labelBackgroundColor=none;strokeWidth=1;" parent="1" vertex="1">
          <mxGeometry x="1558" y="290" width="142" height="150" as="geometry" />
        </mxCell>
        <mxCell id="node39" value="&lt;p style=&quot;margin:0px;margin-top:4px;text-align:center;&quot;&gt;&lt;b&gt;DeliveryStop&lt;/b&gt;&lt;/p&gt;&lt;hr size=&quot;1&quot;/&gt;&lt;p style=&quot;margin:0 0 0 4px;line-height:1.6;&quot;&gt;- items: Map&amp;lt;String, Integer&amp;gt;&lt;br/&gt;- shipmentInstanceID: int&lt;br/&gt;- status: DeliveryStatus&lt;br/&gt;- origin: Site&lt;br/&gt;- destination: Site&lt;br/&gt;- truckTypeRequired: TruckType&lt;br/&gt;- estimatedArrivalTime: Timestamp&lt;/p&gt;" style="verticalAlign=top;align=left;overflow=fill;fontSize=14;fontFamily=Helvetica;html=1;rounded=0;shadow=0;comic=0;labelBackgroundColor=none;strokeWidth=1;" parent="1" vertex="1">
          <mxGeometry x="1609" y="550" width="367" height="240" as="geometry" />
        </mxCell>
        <mxCell id="node32" value="&lt;p style=&quot;margin:0px;margin-top:4px;text-align:center;&quot;&gt;&lt;b&gt;Driver&lt;/b&gt;&lt;/p&gt;&lt;hr size=&quot;1&quot;/&gt;&lt;p style=&quot;margin:0 0 0 4px;line-height:1.6;&quot;&gt;- name: String&lt;br/&gt;- id: String&lt;br/&gt;- availability: Availability&lt;br/&gt;- phone: String&lt;br/&gt;- license: License&lt;/p&gt;" style="verticalAlign=top;align=left;overflow=fill;fontSize=14;fontFamily=Helvetica;html=1;rounded=0;shadow=0;comic=0;labelBackgroundColor=none;strokeWidth=1;" parent="1" vertex="1">
          <mxGeometry x="536" y="536" width="234" height="204" as="geometry" />
        </mxCell>
        <mxCell id="node10" value="&lt;p style=&quot;margin:0px;margin-top:4px;text-align:center;&quot;&gt;&lt;b&gt;DriverController&lt;/b&gt;&lt;/p&gt;&lt;hr size=&quot;1&quot;/&gt;&lt;p style=&quot;margin:0 0 0 4px;line-height:1.6;&quot;&gt;- instance: DriverController&lt;br/&gt;- driverDAO: DriverDAO&lt;br/&gt;- hrManager: HRIntegrator&lt;br/&gt;- drivers: HashSet&amp;lt;Driver&amp;gt;&lt;/p&gt;" style="verticalAlign=top;align=left;overflow=fill;fontSize=14;fontFamily=Helvetica;html=1;rounded=0;shadow=0;comic=0;labelBackgroundColor=none;strokeWidth=1;" parent="1" vertex="1">
          <mxGeometry x="363" y="1019" width="427" height="201" as="geometry" />
        </mxCell>
        <mxCell id="node8" value="&lt;p style=&quot;margin:0px;margin-top:4px;text-align:center;&quot;&gt;&lt;b&gt;DriverDAO&lt;/b&gt;&lt;/p&gt;&lt;hr size=&quot;1&quot;/&gt;&lt;p style=&quot;margin:0 0 0 4px;line-height:1.6;&quot;&gt;- conn: Connect&lt;/p&gt;" style="verticalAlign=top;align=left;overflow=fill;fontSize=14;fontFamily=Helvetica;html=1;rounded=0;shadow=0;comic=0;labelBackgroundColor=none;strokeWidth=1;" parent="1" vertex="1">
          <mxGeometry x="448" y="2470" width="122" height="58" as="geometry" />
        </mxCell>
        <mxCell id="node40" value="&lt;p style=&quot;margin:0px;margin-top:4px;text-align:center;&quot;&gt;&lt;b&gt;License&lt;/b&gt;&lt;/p&gt;&lt;hr size=&quot;1&quot;/&gt;&lt;p style=&quot;margin:0 0 0 4px;line-height:1.6;&quot;&gt;- weightAllowedTons: int&lt;br/&gt;- truckTypesAllowed: Set&amp;lt;TruckType&amp;gt;&lt;/p&gt;" style="verticalAlign=top;align=left;overflow=fill;fontSize=14;fontFamily=Helvetica;html=1;rounded=0;shadow=0;comic=0;labelBackgroundColor=none;strokeWidth=1;" parent="1" vertex="1">
          <mxGeometry x="67" y="420" width="315" height="130" as="geometry" />
        </mxCell>
        <mxCell id="node27" value="&lt;p style=&quot;margin:0px;margin-top:4px;text-align:center;&quot;&gt;&lt;b&gt;Site&lt;/b&gt;&lt;/p&gt;&lt;hr size=&quot;1&quot;/&gt;&lt;p style=&quot;margin:0 0 0 4px;line-height:1.6;&quot;&gt;- contactName: String&lt;br/&gt;- address: String&lt;br/&gt;- name: String&lt;br/&gt;- deliveryZone: int&lt;br/&gt;- contactPhone: String&lt;/p&gt;" style="verticalAlign=top;align=left;overflow=fill;fontSize=14;fontFamily=Helvetica;html=1;rounded=0;shadow=0;comic=0;labelBackgroundColor=none;strokeWidth=1;" parent="1" vertex="1">
          <mxGeometry x="1850" y="274" width="306.5" height="180" as="geometry" />
        </mxCell>
        <mxCell id="node34" value="&lt;p style=&quot;margin:0px;margin-top:4px;text-align:center;&quot;&gt;&lt;b&gt;SiteGenerator&lt;/b&gt;&lt;/p&gt;&lt;hr size=&quot;1&quot;/&gt;&lt;p style=&quot;margin:0 0 0 4px;line-height:1.6;&quot;&gt;+ sitesList: List&amp;lt;Site&amp;gt;&lt;br/&gt;- ZONES: int[]&lt;br/&gt;- NAMES: String[]&lt;/p&gt;" style="verticalAlign=top;align=left;overflow=fill;fontSize=14;fontFamily=Helvetica;html=1;rounded=0;shadow=0;comic=0;labelBackgroundColor=none;strokeWidth=1;" parent="1" vertex="1">
          <mxGeometry x="2120" y="798" width="149" height="106" as="geometry" />
        </mxCell>
        <mxCell id="node20" value="&lt;p style=&quot;margin:0px;margin-top:4px;text-align:center;&quot;&gt;&lt;i&gt;&amp;lt;&amp;lt;interface&amp;gt;&amp;gt;&lt;/i&gt;&lt;br/&gt;&lt;b&gt;TripReplanner&lt;/b&gt;&lt;/p&gt;&lt;hr size=&quot;1&quot;/&gt;" style="verticalAlign=top;align=left;overflow=fill;fontSize=14;fontFamily=Helvetica;html=1;rounded=0;shadow=0;comic=0;labelBackgroundColor=none;strokeWidth=1;" parent="1" vertex="1">
          <mxGeometry x="1067" y="1490" width="138" height="36" as="geometry" />
        </mxCell>
        <mxCell id="node24" value="&lt;p style=&quot;margin:0px;margin-top:4px;text-align:center;&quot;&gt;&lt;b&gt;Truck&lt;/b&gt;&lt;/p&gt;&lt;hr size=&quot;1&quot;/&gt;&lt;p style=&quot;margin:0 0 0 4px;line-height:1.6;&quot;&gt;- model: String&lt;br/&gt;- netWeightTons: int&lt;br/&gt;- maxWeightTons: int&lt;br/&gt;- availability: Availability&lt;br/&gt;- type: TruckType&lt;br/&gt;- licensePlate: String&lt;/p&gt;" style="verticalAlign=top;align=left;overflow=fill;fontSize=14;fontFamily=Helvetica;html=1;rounded=0;shadow=0;comic=0;labelBackgroundColor=none;strokeWidth=1;" parent="1" vertex="1">
          <mxGeometry x="909" y="660" width="261" height="222" as="geometry" />
        </mxCell>
        <mxCell id="node38" value="&lt;p style=&quot;margin:0px;margin-top:4px;text-align:center;&quot;&gt;&lt;b&gt;TruckController&lt;/b&gt;&lt;/p&gt;&lt;hr size=&quot;1&quot;/&gt;&lt;p style=&quot;margin:0 0 0 4px;line-height:1.6;&quot;&gt;- trucks: HashSet&amp;lt;Truck&amp;gt;&lt;br/&gt;- instance: TruckController&lt;br/&gt;- truckDAO: TruckDAO&lt;/p&gt;" style="verticalAlign=top;align=left;overflow=fill;fontSize=14;fontFamily=Helvetica;html=1;rounded=0;shadow=0;comic=0;labelBackgroundColor=none;strokeWidth=1;" parent="1" vertex="1">
          <mxGeometry x="835" y="1066.5" width="355" height="193.5" as="geometry" />
        </mxCell>
        <mxCell id="node23" value="&lt;p style=&quot;margin:0px;margin-top:4px;text-align:center;&quot;&gt;&lt;b&gt;TruckDAO&lt;/b&gt;&lt;/p&gt;&lt;hr size=&quot;1&quot;/&gt;&lt;p style=&quot;margin:0 0 0 4px;line-height:1.6;&quot;&gt;- conn: Connect&lt;/p&gt;" style="verticalAlign=top;align=left;overflow=fill;fontSize=14;fontFamily=Helvetica;html=1;rounded=0;shadow=0;comic=0;labelBackgroundColor=none;strokeWidth=1;" parent="1" vertex="1">
          <mxGeometry x="933" y="2470" width="122" height="58" as="geometry" />
        </mxCell>
        <mxCell id="node26" value="&lt;p style=&quot;margin:0px;margin-top:4px;text-align:center;&quot;&gt;&lt;i&gt;&amp;lt;&amp;lt;enumeration&amp;gt;&amp;gt;&lt;/i&gt;&lt;br/&gt;&lt;b&gt;TruckType&lt;/b&gt;&lt;/p&gt;&lt;hr size=&quot;1&quot;/&gt;&lt;p style=&quot;margin:0 0 0 4px;line-height:1.6;&quot;&gt;+ Refrigerated: &lt;br/&gt;+ Regular: &lt;/p&gt;" style="verticalAlign=top;align=left;overflow=fill;fontSize=14;fontFamily=Helvetica;html=1;rounded=0;shadow=0;comic=0;labelBackgroundColor=none;strokeWidth=1;" parent="1" vertex="1">
          <mxGeometry x="620" y="270" width="116" height="95" as="geometry" />
        </mxCell>
        <mxCell id="node12" value="&lt;p style=&quot;margin:0px;margin-top:4px;text-align:center;&quot;&gt;&lt;b&gt;UserInteractionUtil&lt;/b&gt;&lt;/p&gt;&lt;hr size=&quot;1&quot;/&gt;&lt;p style=&quot;margin:0 0 0 4px;line-height:1.6;&quot;&gt;~ scanner: Scanner&lt;/p&gt;" style="verticalAlign=top;align=left;overflow=fill;fontSize=14;fontFamily=Helvetica;html=1;rounded=0;shadow=0;comic=0;labelBackgroundColor=none;strokeWidth=1;" parent="1" vertex="1">
          <mxGeometry x="1230" y="-60" width="168" height="58" as="geometry" />
        </mxCell>
        <mxCell id="node45" value="&lt;p style=&quot;margin:0px;margin-top:4px;text-align:center;&quot;&gt;&lt;b&gt;UserInterface&lt;/b&gt;&lt;/p&gt;&lt;hr size=&quot;1&quot;/&gt;" style="verticalAlign=top;align=left;overflow=fill;fontSize=14;fontFamily=Helvetica;html=1;rounded=0;shadow=0;comic=0;labelBackgroundColor=none;strokeWidth=1;" parent="1" vertex="1">
          <mxGeometry x="1567" y="-45" width="133" height="55" as="geometry" />
        </mxCell>
        <mxCell id="node17" value="&lt;p style=&quot;margin:0px;margin-top:4px;text-align:center;&quot;&gt;&lt;i&gt;&amp;lt;&amp;lt;interface&amp;gt;&amp;gt;&lt;/i&gt;&lt;br/&gt;&lt;b&gt;WeightMeasurer&lt;/b&gt;&lt;/p&gt;&lt;hr size=&quot;1&quot;/&gt;" style="verticalAlign=top;align=left;overflow=fill;fontSize=14;fontFamily=Helvetica;html=1;rounded=0;shadow=0;comic=0;labelBackgroundColor=none;strokeWidth=1;" parent="1" vertex="1">
          <mxGeometry x="1295" y="1040" width="154" height="36" as="geometry" />
        </mxCell>
        <mxCell id="-iAjR5FaCjqDjCCoV9_O-1" value="" style="line;strokeWidth=1;fillColor=none;align=left;verticalAlign=middle;spacingTop=-1;spacingLeft=3;spacingRight=3;rotatable=0;labelPosition=right;points=[];portConstraint=eastwest;strokeColor=inherit;" parent="1" vertex="1">
          <mxGeometry x="630" y="1670" width="340" height="8" as="geometry" />
        </mxCell>
        <mxCell id="-iAjR5FaCjqDjCCoV9_O-3" value="+ replanDelivery(DeliveryForm form)&amp;nbsp;: void" style="text;strokeColor=none;fillColor=none;align=left;verticalAlign=middle;spacingLeft=4;spacingRight=4;overflow=hidden;points=[[0,0.5],[1,0.5]];portConstraint=eastwest;rotatable=0;whiteSpace=wrap;html=1;" parent="1" vertex="1">
          <mxGeometry x="633" y="1678" width="250" height="30" as="geometry" />
        </mxCell>
        <mxCell id="-iAjR5FaCjqDjCCoV9_O-4" value="+&amp;nbsp;addDeliveryStop(DeliveryStop deliveryStop)&lt;span style=&quot;background-color: initial;&quot;&gt;: void&lt;/span&gt;" style="text;strokeColor=none;fillColor=none;align=left;verticalAlign=middle;spacingLeft=4;spacingRight=4;overflow=hidden;points=[[0,0.5],[1,0.5]];portConstraint=eastwest;rotatable=0;whiteSpace=wrap;html=1;" parent="1" vertex="1">
          <mxGeometry x="630" y="1703" width="283" height="30" as="geometry" />
        </mxCell>
        <mxCell id="-iAjR5FaCjqDjCCoV9_O-5" value="+ removeDeliveryStop(int deliveryId): void" style="text;strokeColor=none;fillColor=none;align=left;verticalAlign=middle;spacingLeft=4;spacingRight=4;overflow=hidden;points=[[0,0.5],[1,0.5]];portConstraint=eastwest;rotatable=0;whiteSpace=wrap;html=1;" parent="1" vertex="1">
          <mxGeometry x="630" y="1730" width="243" height="30" as="geometry" />
        </mxCell>
        <mxCell id="-iAjR5FaCjqDjCCoV9_O-6" value="+ replaceTruck(DeliveryForm form): void" style="text;strokeColor=none;fillColor=none;align=left;verticalAlign=middle;spacingLeft=4;spacingRight=4;overflow=hidden;points=[[0,0.5],[1,0.5]];portConstraint=eastwest;rotatable=0;whiteSpace=wrap;html=1;" parent="1" vertex="1">
          <mxGeometry x="630" y="1756" width="283" height="30" as="geometry" />
        </mxCell>
        <mxCell id="-iAjR5FaCjqDjCCoV9_O-7" value="(Timestamp startTime+ getDeliveryByArrivalTime(Timestamp startTime, Timestamp finishTime, String store) :&amp;nbsp;&lt;span style=&quot;background-color: initial;&quot;&gt;Set&amp;lt;DeliveryStop&amp;gt;&lt;/span&gt;" style="text;strokeColor=none;fillColor=none;align=left;verticalAlign=top;spacingLeft=4;spacingRight=4;overflow=hidden;rotatable=0;points=[[0,0.5],[1,0.5]];portConstraint=eastwest;whiteSpace=wrap;html=1;" parent="1" vertex="1">
          <mxGeometry x="1360" y="1860" width="700" height="26" as="geometry" />
        </mxCell>
        <mxCell id="-iAjR5FaCjqDjCCoV9_O-9" value="+ CreateForm (stops:List&amp;lt;DeliveryStop&amp;gt;, origin: Site) : void" style="text;strokeColor=none;fillColor=none;align=left;verticalAlign=top;spacingLeft=4;spacingRight=4;overflow=hidden;rotatable=0;points=[[0,0.5],[1,0.5]];portConstraint=eastwest;whiteSpace=wrap;html=1;" parent="1" vertex="1">
          <mxGeometry x="1360" y="1886" width="380" height="26" as="geometry" />
        </mxCell>
        <mxCell id="-iAjR5FaCjqDjCCoV9_O-10" value="" style="line;strokeWidth=1;fillColor=none;align=left;verticalAlign=middle;spacingTop=-1;spacingLeft=3;spacingRight=3;rotatable=0;labelPosition=right;points=[];portConstraint=eastwest;strokeColor=inherit;" parent="1" vertex="1">
          <mxGeometry x="1360" y="1852" width="700" height="8" as="geometry" />
        </mxCell>
        <mxCell id="-iAjR5FaCjqDjCCoV9_O-11" value="+ getTruckType(List&amp;lt;DeliveryStop&amp;gt; destinationSitesToVisit) : TruckType" style="text;strokeColor=none;fillColor=none;align=left;verticalAlign=top;spacingLeft=4;spacingRight=4;overflow=hidden;rotatable=0;points=[[0,0.5],[1,0.5]];portConstraint=eastwest;whiteSpace=wrap;html=1;" parent="1" vertex="1">
          <mxGeometry x="1360" y="1912" width="430" height="26" as="geometry" />
        </mxCell>
        <mxCell id="-iAjR5FaCjqDjCCoV9_O-12" value="+ startDeliveryForm(DeliveryForm deliveryForm) : void" style="text;strokeColor=none;fillColor=none;align=left;verticalAlign=top;spacingLeft=4;spacingRight=4;overflow=hidden;rotatable=0;points=[[0,0.5],[1,0.5]];portConstraint=eastwest;whiteSpace=wrap;html=1;" parent="1" vertex="1">
          <mxGeometry x="1360" y="1938" width="380" height="26" as="geometry" />
        </mxCell>
        <mxCell id="-iAjR5FaCjqDjCCoV9_O-13" value="+&amp;nbsp;terminateDeliveryForm(DeliveryForm deliveryForm) : void" style="text;strokeColor=none;fillColor=none;align=left;verticalAlign=top;spacingLeft=4;spacingRight=4;overflow=hidden;rotatable=0;points=[[0,0.5],[1,0.5]];portConstraint=eastwest;whiteSpace=wrap;html=1;" parent="1" vertex="1">
          <mxGeometry x="1360" y="1964" width="700" height="26" as="geometry" />
        </mxCell>
        <mxCell id="-iAjR5FaCjqDjCCoV9_O-14" value="" style="line;strokeWidth=1;fillColor=none;align=left;verticalAlign=middle;spacingTop=-1;spacingLeft=3;spacingRight=3;rotatable=0;labelPosition=right;points=[];portConstraint=eastwest;strokeColor=inherit;" parent="1" vertex="1">
          <mxGeometry x="909" y="833" width="261" height="8" as="geometry" />
        </mxCell>
        <mxCell id="-iAjR5FaCjqDjCCoV9_O-15" value="+freeTruck() : void" style="text;strokeColor=none;fillColor=none;align=left;verticalAlign=middle;spacingLeft=4;spacingRight=4;overflow=hidden;points=[[0,0.5],[1,0.5]];portConstraint=eastwest;rotatable=0;whiteSpace=wrap;html=1;" parent="1" vertex="1">
          <mxGeometry x="909" y="841" width="250" height="30" as="geometry" />
        </mxCell>
        <mxCell id="-iAjR5FaCjqDjCCoV9_O-16" value="" style="line;strokeWidth=1;fillColor=none;align=left;verticalAlign=middle;spacingTop=-1;spacingLeft=3;spacingRight=3;rotatable=0;labelPosition=right;points=[];portConstraint=eastwest;strokeColor=inherit;" parent="1" vertex="1">
          <mxGeometry x="1524" y="1243" width="456" height="8" as="geometry" />
        </mxCell>
        <mxCell id="-iAjR5FaCjqDjCCoV9_O-17" value="+&amp;nbsp;visitDeliveryStop(DeliveryStop deliveryStop) : void" style="text;strokeColor=none;fillColor=none;align=left;verticalAlign=middle;spacingLeft=4;spacingRight=4;overflow=hidden;points=[[0,0.5],[1,0.5]];portConstraint=eastwest;rotatable=0;whiteSpace=wrap;html=1;" parent="1" vertex="1">
          <mxGeometry x="1524" y="1251" width="296" height="30" as="geometry" />
        </mxCell>
        <mxCell id="-iAjR5FaCjqDjCCoV9_O-18" value="+ performWeightCheck() : void&amp;nbsp;" style="text;strokeColor=none;fillColor=none;align=left;verticalAlign=middle;spacingLeft=4;spacingRight=4;overflow=hidden;points=[[0,0.5],[1,0.5]];portConstraint=eastwest;rotatable=0;whiteSpace=wrap;html=1;" parent="1" vertex="1">
          <mxGeometry x="1524" y="1280" width="296" height="30" as="geometry" />
        </mxCell>
        <mxCell id="-iAjR5FaCjqDjCCoV9_O-19" value="+&amp;nbsp;startJourney&lt;span style=&quot;background-color: initial;&quot;&gt;() : void&amp;nbsp;&lt;/span&gt;" style="text;strokeColor=none;fillColor=none;align=left;verticalAlign=middle;spacingLeft=4;spacingRight=4;overflow=hidden;points=[[0,0.5],[1,0.5]];portConstraint=eastwest;rotatable=0;whiteSpace=wrap;html=1;" parent="1" vertex="1">
          <mxGeometry x="1524" y="1310" width="296" height="30" as="geometry" />
        </mxCell>
        <mxCell id="-iAjR5FaCjqDjCCoV9_O-20" value="+&amp;nbsp;completeJourney()&lt;span style=&quot;background-color: initial;&quot;&gt;&amp;nbsp;: void&amp;nbsp;&lt;/span&gt;" style="text;strokeColor=none;fillColor=none;align=left;verticalAlign=middle;spacingLeft=4;spacingRight=4;overflow=hidden;points=[[0,0.5],[1,0.5]];portConstraint=eastwest;rotatable=0;whiteSpace=wrap;html=1;" parent="1" vertex="1">
          <mxGeometry x="1524" y="1340" width="296" height="30" as="geometry" />
        </mxCell>
        <mxCell id="-iAjR5FaCjqDjCCoV9_O-21" value="+&amp;nbsp;updateArrivalTimes&lt;span style=&quot;background-color: initial;&quot;&gt;()&lt;/span&gt;&lt;span style=&quot;background-color: initial;&quot;&gt;&amp;nbsp;: void&amp;nbsp;&lt;/span&gt;" style="text;strokeColor=none;fillColor=none;align=left;verticalAlign=middle;spacingLeft=4;spacingRight=4;overflow=hidden;points=[[0,0.5],[1,0.5]];portConstraint=eastwest;rotatable=0;whiteSpace=wrap;html=1;" parent="1" vertex="1">
          <mxGeometry x="1524" y="1370" width="296" height="30" as="geometry" />
        </mxCell>
        <mxCell id="-iAjR5FaCjqDjCCoV9_O-22" value="+&amp;nbsp;updateArrivalTimesgetStopsByTime(Timestamp startTime&lt;span style=&quot;background-color: initial;&quot;&gt;()&lt;/span&gt;&lt;span style=&quot;background-color: initial;&quot;&gt;&amp;nbsp;:&amp;nbsp;&lt;/span&gt;List&amp;lt;DeliveryStop&amp;gt;" style="text;strokeColor=none;fillColor=none;align=left;verticalAlign=middle;spacingLeft=4;spacingRight=4;overflow=hidden;points=[[0,0.5],[1,0.5]];portConstraint=eastwest;rotatable=0;whiteSpace=wrap;html=1;" parent="1" vertex="1">
          <mxGeometry x="1524" y="1400" width="446" height="30" as="geometry" />
        </mxCell>
        <mxCell id="-iAjR5FaCjqDjCCoV9_O-24" value="+&amp;nbsp;cancelForm() :void" style="text;strokeColor=none;fillColor=none;align=left;verticalAlign=middle;spacingLeft=4;spacingRight=4;overflow=hidden;points=[[0,0.5],[1,0.5]];portConstraint=eastwest;rotatable=0;whiteSpace=wrap;html=1;" parent="1" vertex="1">
          <mxGeometry x="1524" y="1430" width="446" height="30" as="geometry" />
        </mxCell>
        <mxCell id="-iAjR5FaCjqDjCCoV9_O-25" value="" style="line;strokeWidth=1;fillColor=none;align=left;verticalAlign=middle;spacingTop=-1;spacingLeft=3;spacingRight=3;rotatable=0;labelPosition=right;points=[];portConstraint=eastwest;strokeColor=inherit;" parent="1" vertex="1">
          <mxGeometry x="1606" y="748" width="370" height="8" as="geometry" />
        </mxCell>
        <mxCell id="-iAjR5FaCjqDjCCoV9_O-26" value="+&amp;nbsp;updateArrivalTime(Timestamp dispatchlTime)&lt;span style=&quot;background-color: initial;&quot;&gt;&amp;nbsp;: void&amp;nbsp;&lt;/span&gt;" style="text;strokeColor=none;fillColor=none;align=left;verticalAlign=middle;spacingLeft=4;spacingRight=4;overflow=hidden;points=[[0,0.5],[1,0.5]];portConstraint=eastwest;rotatable=0;whiteSpace=wrap;html=1;" parent="1" vertex="1">
          <mxGeometry x="1606" y="754" width="357" height="30" as="geometry" />
        </mxCell>
        <mxCell id="-iAjR5FaCjqDjCCoV9_O-27" value="" style="line;strokeWidth=1;fillColor=none;align=left;verticalAlign=middle;spacingTop=-1;spacingLeft=3;spacingRight=3;rotatable=0;labelPosition=right;points=[];portConstraint=eastwest;strokeColor=inherit;" parent="1" vertex="1">
          <mxGeometry x="536" y="678" width="234" height="8" as="geometry" />
        </mxCell>
        <mxCell id="-iAjR5FaCjqDjCCoV9_O-28" value="+freeDriver&lt;span style=&quot;background-color: initial;&quot;&gt;() : void&lt;/span&gt;" style="text;strokeColor=none;fillColor=none;align=left;verticalAlign=middle;spacingLeft=4;spacingRight=4;overflow=hidden;points=[[0,0.5],[1,0.5]];portConstraint=eastwest;rotatable=0;whiteSpace=wrap;html=1;" parent="1" vertex="1">
          <mxGeometry x="536" y="686" width="250" height="30" as="geometry" />
        </mxCell>
        <mxCell id="-iAjR5FaCjqDjCCoV9_O-29" value="+isLicensed(Truck truck)&lt;span style=&quot;background-color: initial;&quot;&gt;&amp;nbsp;: boolean&lt;/span&gt;" style="text;strokeColor=none;fillColor=none;align=left;verticalAlign=middle;spacingLeft=4;spacingRight=4;overflow=hidden;points=[[0,0.5],[1,0.5]];portConstraint=eastwest;rotatable=0;whiteSpace=wrap;html=1;" parent="1" vertex="1">
          <mxGeometry x="536" y="710" width="250" height="30" as="geometry" />
        </mxCell>
        <mxCell id="-iAjR5FaCjqDjCCoV9_O-30" value="" style="line;strokeWidth=1;fillColor=none;align=left;verticalAlign=middle;spacingTop=-1;spacingLeft=3;spacingRight=3;rotatable=0;labelPosition=right;points=[];portConstraint=eastwest;strokeColor=inherit;" parent="1" vertex="1">
          <mxGeometry x="363" y="1145.5" width="427" height="8" as="geometry" />
        </mxCell>
        <mxCell id="-iAjR5FaCjqDjCCoV9_O-31" value="+ pickDriver(Truck truck, Timestamp startTime, Timestamp finishTime) : Driver" style="text;strokeColor=none;fillColor=none;align=left;verticalAlign=middle;spacingLeft=4;spacingRight=4;overflow=hidden;points=[[0,0.5],[1,0.5]];portConstraint=eastwest;rotatable=0;whiteSpace=wrap;html=1;" parent="1" vertex="1">
          <mxGeometry x="363" y="1153.5" width="427" height="30" as="geometry" />
        </mxCell>
        <mxCell id="-iAjR5FaCjqDjCCoV9_O-32" value="+ notifyHR(Timestamp startTime, Timestamp finishTime, Driver driver) : void" style="text;strokeColor=none;fillColor=none;align=left;verticalAlign=middle;spacingLeft=4;spacingRight=4;overflow=hidden;points=[[0,0.5],[1,0.5]];portConstraint=eastwest;rotatable=0;whiteSpace=wrap;html=1;" parent="1" vertex="1">
          <mxGeometry x="363" y="1180" width="427" height="30" as="geometry" />
        </mxCell>
        <mxCell id="-iAjR5FaCjqDjCCoV9_O-35" value="" style="line;strokeWidth=1;fillColor=none;align=left;verticalAlign=middle;spacingTop=-1;spacingLeft=3;spacingRight=3;rotatable=0;labelPosition=right;points=[];portConstraint=eastwest;strokeColor=inherit;" parent="1" vertex="1">
          <mxGeometry x="67" y="505.5" width="313" height="8" as="geometry" />
        </mxCell>
        <mxCell id="-iAjR5FaCjqDjCCoV9_O-36" value="+ isLicensed(Truck truck)&lt;span style=&quot;background-color: initial;&quot;&gt;&amp;nbsp;: boolean&lt;/span&gt;" style="text;strokeColor=none;fillColor=none;align=left;verticalAlign=middle;spacingLeft=4;spacingRight=4;overflow=hidden;points=[[0,0.5],[1,0.5]];portConstraint=eastwest;rotatable=0;whiteSpace=wrap;html=1;" parent="1" vertex="1">
          <mxGeometry x="66" y="513.5" width="250" height="30" as="geometry" />
        </mxCell>
        <mxCell id="-iAjR5FaCjqDjCCoV9_O-38" value="+ computeDistance(Site otherSite) : int" style="text;strokeColor=none;fillColor=none;align=left;verticalAlign=middle;spacingLeft=4;spacingRight=4;overflow=hidden;points=[[0,0.5],[1,0.5]];portConstraint=eastwest;rotatable=0;whiteSpace=wrap;html=1;" parent="1" vertex="1">
          <mxGeometry x="1850" y="423" width="357" height="30" as="geometry" />
        </mxCell>
        <mxCell id="-iAjR5FaCjqDjCCoV9_O-39" value="" style="line;strokeWidth=1;fillColor=none;align=left;verticalAlign=middle;spacingTop=-1;spacingLeft=3;spacingRight=3;rotatable=0;labelPosition=right;points=[];portConstraint=eastwest;strokeColor=inherit;" parent="1" vertex="1">
          <mxGeometry x="1850" y="418" width="306.5" height="8" as="geometry" />
        </mxCell>
        <mxCell id="-iAjR5FaCjqDjCCoV9_O-40" value="" style="line;strokeWidth=1;fillColor=none;align=left;verticalAlign=middle;spacingTop=-1;spacingLeft=3;spacingRight=3;rotatable=0;labelPosition=right;points=[];portConstraint=eastwest;strokeColor=inherit;" parent="1" vertex="1">
          <mxGeometry x="835" y="1172" width="355" height="8" as="geometry" />
        </mxCell>
        <mxCell id="-iAjR5FaCjqDjCCoV9_O-41" value="+ pickTruck(TruckType requiredType) : Truck&amp;nbsp;" style="text;strokeColor=none;fillColor=none;align=left;verticalAlign=middle;spacingLeft=4;spacingRight=4;overflow=hidden;points=[[0,0.5],[1,0.5]];portConstraint=eastwest;rotatable=0;whiteSpace=wrap;html=1;" parent="1" vertex="1">
          <mxGeometry x="835" y="1183.5" width="265" height="30" as="geometry" />
        </mxCell>
        <mxCell id="-iAjR5FaCjqDjCCoV9_O-42" value="+&amp;nbsp;pickTruck(TruckType requiredType, int requiredWeight) : Truck" style="text;strokeColor=none;fillColor=none;align=left;verticalAlign=middle;spacingLeft=4;spacingRight=4;overflow=hidden;points=[[0,0.5],[1,0.5]];portConstraint=eastwest;rotatable=0;whiteSpace=wrap;html=1;" parent="1" vertex="1">
          <mxGeometry x="835" y="1210" width="405" height="30" as="geometry" />
        </mxCell>
        <mxCell id="-iAjR5FaCjqDjCCoV9_O-43" value="&lt;p style=&quot;margin:0px;margin-top:4px;text-align:center;&quot;&gt;&lt;b&gt;DeliveryManagerService&lt;/b&gt;&lt;/p&gt;&lt;hr size=&quot;1&quot;/&gt;&lt;p style=&quot;margin:0 0 0 4px;line-height:1.6;&quot;&gt;+ deliveryManager: DeliveryManagerImpl&lt;/p&gt;" style="verticalAlign=top;align=left;overflow=fill;fontSize=14;fontFamily=Helvetica;html=1;rounded=0;shadow=0;comic=0;labelBackgroundColor=none;strokeWidth=1;" parent="1" vertex="1">
          <mxGeometry x="1350" y="-170" width="256" height="58" as="geometry" />
        </mxCell>
        <mxCell id="-iAjR5FaCjqDjCCoV9_O-44" value="Presentation Layer" style="swimlane;whiteSpace=wrap;html=1;" parent="1" vertex="1">
          <mxGeometry x="1150" y="-241" width="738.5" height="351" as="geometry" />
        </mxCell>
        <mxCell id="hLXZQ6UuVJ6iJqDCVl8J-50" value="+main()" style="text;strokeColor=none;fillColor=none;align=left;verticalAlign=middle;spacingLeft=4;spacingRight=4;overflow=hidden;points=[[0,0.5],[1,0.5]];portConstraint=eastwest;rotatable=0;whiteSpace=wrap;html=1;" vertex="1" parent="-iAjR5FaCjqDjCCoV9_O-44">
          <mxGeometry x="417" y="218.5" width="58.5" height="30" as="geometry" />
        </mxCell>
        <mxCell id="-iAjR5FaCjqDjCCoV9_O-48" value="DAL" style="swimlane;whiteSpace=wrap;html=1;" parent="1" vertex="1">
          <mxGeometry x="360" y="2360" width="730" height="390" as="geometry" />
        </mxCell>
        <mxCell id="node43" value="&lt;p style=&quot;margin:0px;margin-top:4px;text-align:center;&quot;&gt;&lt;b&gt;Connect&lt;/b&gt;&lt;/p&gt;&lt;hr size=&quot;1&quot;/&gt;&lt;p style=&quot;margin:0 0 0 4px;line-height:1.6;&quot;&gt;+ conn: Connection&lt;br/&gt;+ url: String&lt;br/&gt;- instance: Connect&lt;/p&gt;" style="verticalAlign=top;align=left;overflow=fill;fontSize=14;fontFamily=Helvetica;html=1;rounded=0;shadow=0;comic=0;labelBackgroundColor=none;strokeWidth=1;" parent="-iAjR5FaCjqDjCCoV9_O-48" vertex="1">
          <mxGeometry x="281" y="240" width="139" height="106" as="geometry" />
        </mxCell>
        <mxCell id="hLXZQ6UuVJ6iJqDCVl8J-39" value="1" style="endArrow=open;html=1;endSize=12;startArrow=diamondThin;startSize=14;startFill=1;edgeStyle=orthogonalEdgeStyle;align=left;verticalAlign=bottom;rounded=0;entryX=0.5;entryY=0;entryDx=0;entryDy=0;" edge="1" parent="-iAjR5FaCjqDjCCoV9_O-48" target="node43">
          <mxGeometry x="-0.4292" y="19" relative="1" as="geometry">
            <mxPoint x="350" y="170" as="sourcePoint" />
            <mxPoint x="520" y="210" as="targetPoint" />
            <mxPoint as="offset" />
          </mxGeometry>
        </mxCell>
        <mxCell id="hauENbVeMl4VHald1PyA-16" value="1" style="endArrow=open;html=1;endSize=12;startArrow=diamondThin;startSize=14;startFill=1;edgeStyle=orthogonalEdgeStyle;align=left;verticalAlign=bottom;rounded=0;entryX=0.25;entryY=0;entryDx=0;entryDy=0;exitX=-0.013;exitY=0.383;exitDx=0;exitDy=0;exitPerimeter=0;" parent="1" target="node8" edge="1" source="node10">
          <mxGeometry x="-1" y="3" relative="1" as="geometry">
            <mxPoint x="600" y="750" as="sourcePoint" />
            <mxPoint x="270" y="2544.2666015625" as="targetPoint" />
            <Array as="points">
              <mxPoint x="280" y="1096" />
              <mxPoint x="280" y="2450" />
              <mxPoint x="479" y="2450" />
            </Array>
          </mxGeometry>
        </mxCell>
        <mxCell id="hauENbVeMl4VHald1PyA-17" value="1" style="endArrow=open;html=1;endSize=12;startArrow=diamondThin;startSize=14;startFill=1;edgeStyle=orthogonalEdgeStyle;align=left;verticalAlign=bottom;rounded=0;entryX=1;entryY=0.5;entryDx=0;entryDy=0;exitX=1;exitY=0.5;exitDx=0;exitDy=0;" parent="1" target="node23" edge="1" source="node38">
          <mxGeometry x="-1" y="3" relative="1" as="geometry">
            <mxPoint x="1040" y="882" as="sourcePoint" />
            <mxPoint x="1090" y="2500" as="targetPoint" />
            <Array as="points">
              <mxPoint x="1280" y="1163" />
              <mxPoint x="1280" y="2500" />
              <mxPoint x="1055" y="2500" />
            </Array>
          </mxGeometry>
        </mxCell>
        <mxCell id="hauENbVeMl4VHald1PyA-18" value="1" style="endArrow=open;html=1;endSize=12;startArrow=diamondThin;startSize=14;startFill=1;edgeStyle=orthogonalEdgeStyle;align=left;verticalAlign=bottom;rounded=0;exitX=0.214;exitY=1;exitDx=0;exitDy=0;exitPerimeter=0;entryX=0.5;entryY=0;entryDx=0;entryDy=0;" parent="1" source="node44" target="node0" edge="1">
          <mxGeometry x="-1" y="3" relative="1" as="geometry">
            <mxPoint x="1110" y="2020" as="sourcePoint" />
            <mxPoint x="740" y="2420" as="targetPoint" />
            <Array as="points">
              <mxPoint x="1510" y="2420" />
              <mxPoint x="744" y="2420" />
            </Array>
          </mxGeometry>
        </mxCell>
        <mxCell id="hauENbVeMl4VHald1PyA-19" value="1..*" style="endArrow=open;html=1;endSize=12;startArrow=diamondThin;startSize=14;startFill=1;edgeStyle=orthogonalEdgeStyle;align=left;verticalAlign=bottom;rounded=0;entryX=0.5;entryY=1;entryDx=0;entryDy=0;exitX=0.515;exitY=0.003;exitDx=0;exitDy=0;exitPerimeter=0;" parent="1" source="node44" target="node25" edge="1">
          <mxGeometry x="-1" y="3" relative="1" as="geometry">
            <mxPoint x="1720" y="1650" as="sourcePoint" />
            <mxPoint x="1820" y="1600" as="targetPoint" />
          </mxGeometry>
        </mxCell>
        <mxCell id="hLXZQ6UuVJ6iJqDCVl8J-1" value="1" style="endArrow=open;html=1;endSize=12;startArrow=diamondThin;startSize=14;startFill=1;edgeStyle=orthogonalEdgeStyle;align=left;verticalAlign=bottom;rounded=0;exitX=0.5;exitY=0;exitDx=0;exitDy=0;entryX=0.75;entryY=1;entryDx=0;entryDy=0;" edge="1" parent="1" source="node24" target="node42">
          <mxGeometry x="-1" y="3" relative="1" as="geometry">
            <mxPoint x="1270" y="760" as="sourcePoint" />
            <mxPoint x="1040" y="560" as="targetPoint" />
            <Array as="points">
              <mxPoint x="1040" y="600" />
              <mxPoint x="1037" y="600" />
            </Array>
          </mxGeometry>
        </mxCell>
        <mxCell id="hLXZQ6UuVJ6iJqDCVl8J-2" value="1" style="endArrow=open;html=1;endSize=12;startArrow=diamondThin;startSize=14;startFill=1;edgeStyle=orthogonalEdgeStyle;align=left;verticalAlign=bottom;rounded=0;exitX=0.5;exitY=0;exitDx=0;exitDy=0;" edge="1" parent="1">
          <mxGeometry x="-1" y="-17" relative="1" as="geometry">
            <mxPoint x="936" y="655" as="sourcePoint" />
            <mxPoint x="673" y="365" as="targetPoint" />
            <Array as="points">
              <mxPoint x="936" y="405" />
            </Array>
            <mxPoint as="offset" />
          </mxGeometry>
        </mxCell>
        <mxCell id="hLXZQ6UuVJ6iJqDCVl8J-3" value="1..*" style="endArrow=open;html=1;endSize=12;startArrow=diamondThin;startSize=14;startFill=1;edgeStyle=orthogonalEdgeStyle;align=left;verticalAlign=bottom;rounded=0;entryX=0.089;entryY=1.061;entryDx=0;entryDy=0;entryPerimeter=0;" edge="1" parent="1" target="node26">
          <mxGeometry x="-1" y="3" relative="1" as="geometry">
            <mxPoint x="382" y="484.38" as="sourcePoint" />
            <mxPoint x="542" y="484.38" as="targetPoint" />
          </mxGeometry>
        </mxCell>
        <mxCell id="hLXZQ6UuVJ6iJqDCVl8J-5" value="1" style="endArrow=open;html=1;endSize=12;startArrow=diamondThin;startSize=14;startFill=1;edgeStyle=orthogonalEdgeStyle;align=left;verticalAlign=bottom;rounded=0;" edge="1" parent="1" source="node39" target="node26">
          <mxGeometry x="-1" y="-17" relative="1" as="geometry">
            <mxPoint x="1620" y="530" as="sourcePoint" />
            <mxPoint x="710" y="364.5" as="targetPoint" />
            <Array as="points">
              <mxPoint x="1663" y="520" />
              <mxPoint x="1650" y="520" />
              <mxPoint x="1650" y="480" />
              <mxPoint x="1140" y="480" />
              <mxPoint x="1140" y="364" />
            </Array>
            <mxPoint as="offset" />
          </mxGeometry>
        </mxCell>
        <mxCell id="hLXZQ6UuVJ6iJqDCVl8J-6" value="1" style="endArrow=open;html=1;endSize=12;startArrow=diamondThin;startSize=14;startFill=1;edgeStyle=orthogonalEdgeStyle;align=left;verticalAlign=bottom;rounded=0;exitX=0.25;exitY=0;exitDx=0;exitDy=0;entryX=0.75;entryY=1;entryDx=0;entryDy=0;" edge="1" parent="1" source="node39" target="node46">
          <mxGeometry x="-1" y="3" relative="1" as="geometry">
            <mxPoint x="1680" y="505.5" as="sourcePoint" />
            <mxPoint x="1840" y="505.5" as="targetPoint" />
          </mxGeometry>
        </mxCell>
        <mxCell id="hLXZQ6UuVJ6iJqDCVl8J-7" value="1..*" style="endArrow=open;html=1;endSize=12;startArrow=diamondThin;startSize=14;startFill=1;edgeStyle=orthogonalEdgeStyle;align=left;verticalAlign=bottom;rounded=0;entryX=0;entryY=0.75;entryDx=0;entryDy=0;" edge="1" parent="1" source="node30" target="node39">
          <mxGeometry x="-1" y="3" relative="1" as="geometry">
            <mxPoint x="1320" y="1230" as="sourcePoint" />
            <mxPoint x="1480" y="720" as="targetPoint" />
            <Array as="points">
              <mxPoint x="1460" y="1635" />
              <mxPoint x="1460" y="730" />
            </Array>
          </mxGeometry>
        </mxCell>
        <mxCell id="hLXZQ6UuVJ6iJqDCVl8J-8" value="2" style="endArrow=open;html=1;endSize=12;startArrow=diamondThin;startSize=14;startFill=1;edgeStyle=orthogonalEdgeStyle;align=left;verticalAlign=bottom;rounded=0;" edge="1" parent="1">
          <mxGeometry x="-1" y="3" relative="1" as="geometry">
            <mxPoint x="1976" y="650" as="sourcePoint" />
            <mxPoint x="2030" y="460" as="targetPoint" />
          </mxGeometry>
        </mxCell>
        <mxCell id="hLXZQ6UuVJ6iJqDCVl8J-9" value="1..*" style="endArrow=open;html=1;endSize=12;startArrow=diamondThin;startSize=14;startFill=1;edgeStyle=orthogonalEdgeStyle;align=left;verticalAlign=bottom;rounded=0;exitX=0.25;exitY=0;exitDx=0;exitDy=0;" edge="1" parent="1" source="node34">
          <mxGeometry x="-0.9617" y="-13" relative="1" as="geometry">
            <mxPoint x="2100" y="710" as="sourcePoint" />
            <mxPoint x="2080" y="456.9523402622768" as="targetPoint" />
            <mxPoint as="offset" />
          </mxGeometry>
        </mxCell>
        <mxCell id="hLXZQ6UuVJ6iJqDCVl8J-10" value="1" style="endArrow=open;html=1;endSize=12;startArrow=diamondThin;startSize=14;startFill=1;edgeStyle=orthogonalEdgeStyle;align=left;verticalAlign=bottom;rounded=0;" edge="1" parent="1">
          <mxGeometry x="-1" y="3" relative="1" as="geometry">
            <mxPoint x="970" y="1510" as="sourcePoint" />
            <mxPoint x="1070" y="1510" as="targetPoint" />
          </mxGeometry>
        </mxCell>
        <mxCell id="hLXZQ6UuVJ6iJqDCVl8J-11" value="1" style="endArrow=open;html=1;endSize=12;startArrow=diamondThin;startSize=14;startFill=1;edgeStyle=orthogonalEdgeStyle;align=left;verticalAlign=bottom;rounded=0;exitX=0.75;exitY=0;exitDx=0;exitDy=0;entryX=0.123;entryY=1.045;entryDx=0;entryDy=0;entryPerimeter=0;" edge="1" parent="1" source="node30" target="node38">
          <mxGeometry x="-1" y="3" relative="1" as="geometry">
            <mxPoint x="850" y="1340" as="sourcePoint" />
            <mxPoint x="1010" y="1340" as="targetPoint" />
          </mxGeometry>
        </mxCell>
        <mxCell id="hLXZQ6UuVJ6iJqDCVl8J-12" value="1" style="endArrow=open;html=1;endSize=12;startArrow=diamondThin;startSize=14;startFill=1;edgeStyle=orthogonalEdgeStyle;align=left;verticalAlign=bottom;rounded=0;exitX=0.085;exitY=-0.004;exitDx=0;exitDy=0;entryX=0.123;entryY=1.045;entryDx=0;entryDy=0;entryPerimeter=0;exitPerimeter=0;" edge="1" parent="1" source="node30">
          <mxGeometry x="-1" y="3" relative="1" as="geometry">
            <mxPoint x="678.21" y="1430.5" as="sourcePoint" />
            <mxPoint x="677.21" y="1219.5" as="targetPoint" />
          </mxGeometry>
        </mxCell>
        <mxCell id="hLXZQ6UuVJ6iJqDCVl8J-13" value="1" style="endArrow=open;html=1;endSize=12;startArrow=diamondThin;startSize=14;startFill=1;edgeStyle=orthogonalEdgeStyle;align=left;verticalAlign=bottom;rounded=0;" edge="1" parent="1">
          <mxGeometry x="-1" y="3" relative="1" as="geometry">
            <mxPoint x="970" y="1692" as="sourcePoint" />
            <mxPoint x="1360" y="1692.29" as="targetPoint" />
          </mxGeometry>
        </mxCell>
        <mxCell id="hLXZQ6UuVJ6iJqDCVl8J-17" value="" style="endArrow=block;dashed=1;endFill=0;endSize=12;html=1;rounded=0;exitX=-0.003;exitY=0.319;exitDx=0;exitDy=0;exitPerimeter=0;entryX=1;entryY=0.5;entryDx=0;entryDy=0;" edge="1" parent="1" source="node30" target="node7">
          <mxGeometry width="160" relative="1" as="geometry">
            <mxPoint x="460" y="1526" as="sourcePoint" />
            <mxPoint x="620" y="1526" as="targetPoint" />
          </mxGeometry>
        </mxCell>
        <mxCell id="hLXZQ6UuVJ6iJqDCVl8J-18" value="implements" style="edgeLabel;html=1;align=center;verticalAlign=middle;resizable=0;points=[];" vertex="1" connectable="0" parent="hLXZQ6UuVJ6iJqDCVl8J-17">
          <mxGeometry x="-0.157" relative="1" as="geometry">
            <mxPoint as="offset" />
          </mxGeometry>
        </mxCell>
        <mxCell id="hLXZQ6UuVJ6iJqDCVl8J-20" value="1" style="endArrow=open;html=1;endSize=12;startArrow=diamondThin;startSize=14;startFill=1;edgeStyle=orthogonalEdgeStyle;align=left;verticalAlign=bottom;rounded=0;entryX=1;entryY=0.5;entryDx=0;entryDy=0;exitX=0.079;exitY=0;exitDx=0;exitDy=0;exitPerimeter=0;" edge="1" parent="1" source="node25" target="node24">
          <mxGeometry x="-0.9214" y="-10" relative="1" as="geometry">
            <mxPoint x="1560" y="860" as="sourcePoint" />
            <mxPoint x="1720" y="690" as="targetPoint" />
            <Array as="points">
              <mxPoint x="1560" y="771" />
            </Array>
            <mxPoint as="offset" />
          </mxGeometry>
        </mxCell>
        <mxCell id="hLXZQ6UuVJ6iJqDCVl8J-21" value="1" style="endArrow=open;html=1;endSize=12;startArrow=diamondThin;startSize=14;startFill=1;edgeStyle=orthogonalEdgeStyle;align=left;verticalAlign=bottom;rounded=0;exitX=0.079;exitY=0;exitDx=0;exitDy=0;exitPerimeter=0;" edge="1" parent="1" target="node32">
          <mxGeometry x="-0.9214" y="-10" relative="1" as="geometry">
            <mxPoint x="1595" y="890" as="sourcePoint" />
            <mxPoint x="1205" y="771" as="targetPoint" />
            <Array as="points">
              <mxPoint x="1595" y="620" />
            </Array>
            <mxPoint as="offset" />
          </mxGeometry>
        </mxCell>
        <mxCell id="hLXZQ6UuVJ6iJqDCVl8J-22" value="1" style="endArrow=open;html=1;endSize=12;startArrow=diamondThin;startSize=14;startFill=1;edgeStyle=orthogonalEdgeStyle;align=left;verticalAlign=bottom;rounded=0;entryX=0.284;entryY=-0.004;entryDx=0;entryDy=0;entryPerimeter=0;exitX=0.077;exitY=1;exitDx=0;exitDy=0;exitPerimeter=0;" edge="1" parent="1" source="node25" target="node44">
          <mxGeometry x="-0.7882" y="11" relative="1" as="geometry">
            <mxPoint x="1558" y="1526" as="sourcePoint" />
            <mxPoint x="1718" y="1526" as="targetPoint" />
            <mxPoint as="offset" />
          </mxGeometry>
        </mxCell>
        <mxCell id="hLXZQ6UuVJ6iJqDCVl8J-23" value="1..*" style="endArrow=open;html=1;endSize=12;startArrow=diamondThin;startSize=14;startFill=1;edgeStyle=orthogonalEdgeStyle;align=left;verticalAlign=bottom;rounded=0;exitX=0.079;exitY=0;exitDx=0;exitDy=0;exitPerimeter=0;entryX=0.25;entryY=1;entryDx=0;entryDy=0;" edge="1" parent="1" target="node39">
          <mxGeometry x="-0.9214" y="-10" relative="1" as="geometry">
            <mxPoint x="1700" y="890" as="sourcePoint" />
            <mxPoint x="1720" y="840" as="targetPoint" />
            <Array as="points" />
            <mxPoint as="offset" />
          </mxGeometry>
        </mxCell>
        <mxCell id="hLXZQ6UuVJ6iJqDCVl8J-24" value="1" style="endArrow=open;html=1;endSize=12;startArrow=diamondThin;startSize=14;startFill=1;edgeStyle=orthogonalEdgeStyle;align=left;verticalAlign=bottom;rounded=0;exitX=0;exitY=-0.058;exitDx=0;exitDy=0;exitPerimeter=0;" edge="1" parent="1" source="-iAjR5FaCjqDjCCoV9_O-17">
          <mxGeometry x="-0.872" y="20" relative="1" as="geometry">
            <mxPoint x="1510" y="1250" as="sourcePoint" />
            <mxPoint x="970" y="1550" as="targetPoint" />
            <Array as="points">
              <mxPoint x="1490" y="1249" />
              <mxPoint x="1490" y="1550" />
              <mxPoint x="970" y="1550" />
            </Array>
            <mxPoint as="offset" />
          </mxGeometry>
        </mxCell>
        <mxCell id="hLXZQ6UuVJ6iJqDCVl8J-25" value="1" style="endArrow=open;html=1;endSize=12;startArrow=diamondThin;startSize=14;startFill=1;edgeStyle=orthogonalEdgeStyle;align=left;verticalAlign=bottom;rounded=0;entryX=0.25;entryY=0;entryDx=0;entryDy=0;" edge="1" parent="1" target="node33">
          <mxGeometry x="-0.9214" y="-10" relative="1" as="geometry">
            <mxPoint x="1980" y="960" as="sourcePoint" />
            <mxPoint x="1711" y="800" as="targetPoint" />
            <Array as="points">
              <mxPoint x="1980" y="961" />
              <mxPoint x="3053" y="961" />
            </Array>
            <mxPoint as="offset" />
          </mxGeometry>
        </mxCell>
        <mxCell id="hLXZQ6UuVJ6iJqDCVl8J-28" value="1" style="endArrow=open;html=1;endSize=12;startArrow=diamondThin;startSize=14;startFill=1;edgeStyle=orthogonalEdgeStyle;align=left;verticalAlign=bottom;rounded=0;entryX=1;entryY=0.5;entryDx=0;entryDy=0;" edge="1" parent="1" target="node17">
          <mxGeometry x="-1" y="3" relative="1" as="geometry">
            <mxPoint x="1520" y="1058" as="sourcePoint" />
            <mxPoint x="1510" y="1080" as="targetPoint" />
          </mxGeometry>
        </mxCell>
        <mxCell id="hLXZQ6UuVJ6iJqDCVl8J-29" value="1" style="endArrow=open;html=1;endSize=12;startArrow=diamondThin;startSize=14;startFill=1;edgeStyle=orthogonalEdgeStyle;align=left;verticalAlign=bottom;rounded=0;" edge="1" parent="1">
          <mxGeometry x="-1" y="3" relative="1" as="geometry">
            <mxPoint x="770" y="584.88" as="sourcePoint" />
            <mxPoint x="947" y="520" as="targetPoint" />
            <Array as="points">
              <mxPoint x="910" y="585" />
              <mxPoint x="910" y="520" />
              <mxPoint x="947" y="520" />
            </Array>
          </mxGeometry>
        </mxCell>
        <mxCell id="hLXZQ6UuVJ6iJqDCVl8J-30" value="1" style="endArrow=open;html=1;endSize=12;startArrow=diamondThin;startSize=14;startFill=1;edgeStyle=orthogonalEdgeStyle;align=left;verticalAlign=bottom;rounded=0;exitX=-0.002;exitY=0.553;exitDx=0;exitDy=0;exitPerimeter=0;entryX=1;entryY=1;entryDx=0;entryDy=0;" edge="1" parent="1" source="node32" target="node40">
          <mxGeometry x="-0.7976" relative="1" as="geometry">
            <mxPoint x="250" y="650" as="sourcePoint" />
            <mxPoint x="410" y="650" as="targetPoint" />
            <mxPoint as="offset" />
          </mxGeometry>
        </mxCell>
        <mxCell id="hLXZQ6UuVJ6iJqDCVl8J-32" value="1..*" style="endArrow=open;html=1;endSize=12;startArrow=diamondThin;startSize=14;startFill=1;edgeStyle=orthogonalEdgeStyle;align=left;verticalAlign=bottom;rounded=0;exitX=0.602;exitY=-0.015;exitDx=0;exitDy=0;exitPerimeter=0;entryX=0.338;entryY=0.995;entryDx=0;entryDy=0;entryPerimeter=0;" edge="1" parent="1" source="node10" target="-iAjR5FaCjqDjCCoV9_O-29">
          <mxGeometry x="-1" y="-11" relative="1" as="geometry">
            <mxPoint x="668" y="820" as="sourcePoint" />
            <mxPoint x="640" y="780" as="targetPoint" />
            <Array as="points" />
            <mxPoint x="-1" y="4" as="offset" />
          </mxGeometry>
        </mxCell>
        <mxCell id="hLXZQ6UuVJ6iJqDCVl8J-33" value="1..*" style="endArrow=open;html=1;endSize=12;startArrow=diamondThin;startSize=14;startFill=1;edgeStyle=orthogonalEdgeStyle;align=left;verticalAlign=bottom;rounded=0;exitX=0.5;exitY=0;exitDx=0;exitDy=0;entryX=0.338;entryY=0.995;entryDx=0;entryDy=0;entryPerimeter=0;" edge="1" parent="1" source="node38">
          <mxGeometry x="-1" y="-7" relative="1" as="geometry">
            <mxPoint x="1011.79" y="1155.5" as="sourcePoint" />
            <mxPoint x="1012.79" y="879.5" as="targetPoint" />
            <Array as="points" />
            <mxPoint x="1" as="offset" />
          </mxGeometry>
        </mxCell>
        <mxCell id="hLXZQ6UuVJ6iJqDCVl8J-34" value="1" style="endArrow=open;html=1;endSize=12;startArrow=diamondThin;startSize=14;startFill=1;edgeStyle=orthogonalEdgeStyle;align=left;verticalAlign=bottom;rounded=0;entryX=0;entryY=0.25;entryDx=0;entryDy=0;exitX=0.947;exitY=1.001;exitDx=0;exitDy=0;exitPerimeter=0;" edge="1" parent="1" source="node10" target="node33">
          <mxGeometry x="-0.9623" y="12" relative="1" as="geometry">
            <mxPoint x="780" y="1240" as="sourcePoint" />
            <mxPoint x="883" y="1000" as="targetPoint" />
            <Array as="points">
              <mxPoint x="767" y="1260" />
              <mxPoint x="774" y="1260" />
              <mxPoint x="774" y="1470" />
              <mxPoint x="2980" y="1470" />
              <mxPoint x="2980" y="1190" />
            </Array>
            <mxPoint x="-6" y="-10" as="offset" />
          </mxGeometry>
        </mxCell>
        <mxCell id="hLXZQ6UuVJ6iJqDCVl8J-35" value="1" style="endArrow=open;html=1;endSize=12;startArrow=diamondThin;startSize=14;startFill=1;edgeStyle=orthogonalEdgeStyle;align=left;verticalAlign=bottom;rounded=0;exitX=0.206;exitY=-0.002;exitDx=0;exitDy=0;exitPerimeter=0;entryX=0.5;entryY=1;entryDx=0;entryDy=0;" edge="1" parent="1" source="node44" target="node38">
          <mxGeometry x="-1" y="3" relative="1" as="geometry">
            <mxPoint x="1340" y="1590" as="sourcePoint" />
            <mxPoint x="1500" y="1590" as="targetPoint" />
          </mxGeometry>
        </mxCell>
        <mxCell id="hLXZQ6UuVJ6iJqDCVl8J-36" value="1" style="endArrow=open;html=1;endSize=12;startArrow=diamondThin;startSize=14;startFill=1;edgeStyle=orthogonalEdgeStyle;align=left;verticalAlign=bottom;rounded=0;exitX=0.093;exitY=0.001;exitDx=0;exitDy=0;exitPerimeter=0;entryX=0.894;entryY=0.999;entryDx=0;entryDy=0;entryPerimeter=0;" edge="1" parent="1" source="node44" target="node10">
          <mxGeometry x="-1" y="3" relative="1" as="geometry">
            <mxPoint x="1514" y="1669" as="sourcePoint" />
            <mxPoint x="1023" y="1270" as="targetPoint" />
          </mxGeometry>
        </mxCell>
        <mxCell id="hLXZQ6UuVJ6iJqDCVl8J-37" value="1" style="endArrow=open;html=1;endSize=12;startArrow=diamondThin;startSize=14;startFill=1;edgeStyle=orthogonalEdgeStyle;align=left;verticalAlign=bottom;rounded=0;entryX=0.598;entryY=1.007;entryDx=0;entryDy=0;entryPerimeter=0;exitX=1;exitY=0.25;exitDx=0;exitDy=0;" edge="1" parent="1" source="node25" target="-iAjR5FaCjqDjCCoV9_O-38">
          <mxGeometry x="-1" y="3" relative="1" as="geometry">
            <mxPoint x="2000" y="971" as="sourcePoint" />
            <mxPoint x="2140" y="971" as="targetPoint" />
            <Array as="points">
              <mxPoint x="2063" y="1035" />
            </Array>
          </mxGeometry>
        </mxCell>
        <mxCell id="hLXZQ6UuVJ6iJqDCVl8J-38" value="Buisness Layer" style="swimlane;whiteSpace=wrap;html=1;" vertex="1" parent="1">
          <mxGeometry x="-240" y="200" width="2970" height="1980" as="geometry" />
        </mxCell>
        <mxCell id="hLXZQ6UuVJ6iJqDCVl8J-40" value="1" style="endArrow=open;html=1;endSize=12;startArrow=diamondThin;startSize=14;startFill=1;edgeStyle=orthogonalEdgeStyle;align=left;verticalAlign=bottom;rounded=0;entryX=0.75;entryY=0;entryDx=0;entryDy=0;exitX=0.25;exitY=1;exitDx=0;exitDy=0;" edge="1" parent="1" source="node23" target="node43">
          <mxGeometry x="-0.4292" y="19" relative="1" as="geometry">
            <mxPoint x="721" y="2540" as="sourcePoint" />
            <mxPoint x="721" y="2610" as="targetPoint" />
            <mxPoint as="offset" />
          </mxGeometry>
        </mxCell>
        <mxCell id="hLXZQ6UuVJ6iJqDCVl8J-41" value="1" style="endArrow=open;html=1;endSize=12;startArrow=diamondThin;startSize=14;startFill=1;edgeStyle=orthogonalEdgeStyle;align=left;verticalAlign=bottom;rounded=0;entryX=0.25;entryY=0;entryDx=0;entryDy=0;exitX=0.5;exitY=1;exitDx=0;exitDy=0;" edge="1" parent="1" source="node8" target="node43">
          <mxGeometry x="-0.4292" y="19" relative="1" as="geometry">
            <mxPoint x="679" y="2560" as="sourcePoint" />
            <mxPoint x="460" y="2632" as="targetPoint" />
            <mxPoint as="offset" />
          </mxGeometry>
        </mxCell>
        <mxCell id="hLXZQ6UuVJ6iJqDCVl8J-42" value="1" style="endArrow=open;html=1;endSize=12;startArrow=diamondThin;startSize=14;startFill=1;edgeStyle=orthogonalEdgeStyle;align=left;verticalAlign=bottom;rounded=0;exitX=0.5;exitY=1;exitDx=0;exitDy=0;" edge="1" parent="1" source="-iAjR5FaCjqDjCCoV9_O-43">
          <mxGeometry x="-0.9696" y="12" relative="1" as="geometry">
            <mxPoint x="1450" y="100" as="sourcePoint" />
            <mxPoint x="970" y="1483" as="targetPoint" />
            <Array as="points">
              <mxPoint x="1478" y="686" />
              <mxPoint x="1250" y="686" />
              <mxPoint x="1250" y="1483" />
            </Array>
            <mxPoint as="offset" />
          </mxGeometry>
        </mxCell>
        <mxCell id="hLXZQ6UuVJ6iJqDCVl8J-45" value="" style="endArrow=block;dashed=1;endFill=0;endSize=12;html=1;rounded=0;entryX=0;entryY=0.5;entryDx=0;entryDy=0;" edge="1" parent="1" target="node15">
          <mxGeometry width="160" relative="1" as="geometry">
            <mxPoint x="2040" y="1650" as="sourcePoint" />
            <mxPoint x="1440" y="1410" as="targetPoint" />
            <Array as="points">
              <mxPoint x="2040" y="1338" />
            </Array>
          </mxGeometry>
        </mxCell>
        <mxCell id="hLXZQ6UuVJ6iJqDCVl8J-46" value="" style="endArrow=block;dashed=1;endFill=0;endSize=12;html=1;rounded=0;entryX=0.377;entryY=0.042;entryDx=0;entryDy=0;entryPerimeter=0;" edge="1" parent="1" target="node17">
          <mxGeometry width="160" relative="1" as="geometry">
            <mxPoint x="1340" as="sourcePoint" />
            <mxPoint x="980" y="290" as="targetPoint" />
          </mxGeometry>
        </mxCell>
        <mxCell id="hLXZQ6UuVJ6iJqDCVl8J-49" value="implements" style="edgeLabel;html=1;align=center;verticalAlign=middle;resizable=0;points=[];" vertex="1" connectable="0" parent="hLXZQ6UuVJ6iJqDCVl8J-46">
          <mxGeometry x="-0.7154" y="2" relative="1" as="geometry">
            <mxPoint y="1" as="offset" />
          </mxGeometry>
        </mxCell>
        <mxCell id="hLXZQ6UuVJ6iJqDCVl8J-47" value="" style="endArrow=block;dashed=1;endFill=0;endSize=12;html=1;rounded=0;entryX=0.75;entryY=0;entryDx=0;entryDy=0;" edge="1" parent="1" target="node20">
          <mxGeometry width="160" relative="1" as="geometry">
            <mxPoint x="1240" y="10" as="sourcePoint" />
            <mxPoint x="1393" y="1062" as="targetPoint" />
            <Array as="points">
              <mxPoint x="1240" y="1400" />
            </Array>
          </mxGeometry>
        </mxCell>
        <mxCell id="hLXZQ6UuVJ6iJqDCVl8J-48" value="implements" style="edgeLabel;html=1;align=center;verticalAlign=middle;resizable=0;points=[];" vertex="1" connectable="0" parent="hLXZQ6UuVJ6iJqDCVl8J-47">
          <mxGeometry x="-0.8129" y="-6" relative="1" as="geometry">
            <mxPoint y="1" as="offset" />
          </mxGeometry>
        </mxCell>
        <mxCell id="node33" value="&lt;p style=&quot;margin:0px;margin-top:4px;text-align:center;&quot;&gt;&lt;i&gt;&amp;lt;&amp;lt;interface&amp;gt;&amp;gt;&lt;/i&gt;&lt;br/&gt;&lt;b&gt;HRIntegrator&lt;/b&gt;&lt;/p&gt;&lt;hr size=&quot;1&quot;/&gt;" style="verticalAlign=top;align=left;overflow=fill;fontSize=14;fontFamily=Helvetica;html=1;rounded=0;shadow=0;comic=0;labelBackgroundColor=none;strokeWidth=1;" parent="1" vertex="1">
          <mxGeometry x="3310" y="1172" width="133" height="36" as="geometry" />
        </mxCell>
      </root>
    </mxGraphModel>
  </diagram>
  <diagram id="kDZrigGCXyCNFxpXJX30" name="‫עמוד-2‬">
    <mxGraphModel dx="845" dy="323" grid="1" gridSize="10" guides="1" tooltips="1" connect="1" arrows="1" fold="1" page="1" pageScale="1" pageWidth="3300" pageHeight="4681" math="0" shadow="0">
      <root>
        <mxCell id="0" />
        <mxCell id="1" parent="0" />
      </root>
    </mxGraphModel>
  </diagram>
</mxfile>
